<?xml version="1.0" encoding="utf-8"?>
<!-- Generator: Adobe Illustrator 24.2.0, SVG Export Plug-In . SVG Version: 6.00 Build 0)  -->
<svg version="1.0" id="Ebene_1" xmlns="http://www.w3.org/2000/svg" xmlns:xlink="http://www.w3.org/1999/xlink" x="0px" y="0px"
	 viewBox="0 0 24 24" enable-background="new 0 0 24 24" xml:space="preserve">
<g id="SVG_x5F_24x24pt">
	<path id="backgroundBlue" fill="#2D327D" d="M0,22.5v-21C0,0.675,0.675,0,1.5,0h21C23.325,0,24,0.675,24,1.5v21
		c0,0.825-0.675,1.5-1.5,1.5h-21C0.675,24,0,23.325,0,22.5z"/>
	<g id="content">
		<path fill="#FFFFFF" d="M10.688,3.75c-0.725,0-1.313,0.589-1.313,1.313V13.5h0.751v6c0,0.518,0.419,0.938,0.937,0.938
			c0.518,0,0.937-0.42,0.937-0.938V5.063C12.001,4.339,11.412,3.75,10.688,3.75L10.688,3.75z"/>
		<path fill="#FFFFFF" d="M7.219,3.75c-0.155,0-0.281,0.126-0.281,0.281v3.844H6.375V4.031c0-0.155-0.126-0.281-0.282-0.281
			c-0.155,0-0.281,0.126-0.281,0.281v3.844H5.25V4.031c0-0.155-0.126-0.281-0.281-0.281c-0.155,0-0.281,0.126-0.281,0.281v3.844
			H4.125V4.031c0-0.155-0.126-0.281-0.282-0.281c-0.155,0-0.282,0.126-0.282,0.281v3.844c0,0.007,0,0.014,0,0.021
			c0,0.756,0.39,1.457,1.031,1.855V19.5c0,0.518,0.421,0.938,0.937,0.938c0.518,0,0.938-0.42,0.938-0.938V9.751
			C7.11,9.352,7.5,8.651,7.5,7.896c0-0.007,0-0.013,0-0.021V4.031C7.5,3.876,7.374,3.75,7.219,3.75L7.219,3.75z"/>
	</g>
</g>
</svg>
