<?xml version="1.0" encoding="utf-8"?>
<!-- Generator: Adobe Illustrator 24.2.0, SVG Export Plug-In . SVG Version: 6.00 Build 0)  -->
<svg version="1.0" id="Ebene_1" xmlns="http://www.w3.org/2000/svg" xmlns:xlink="http://www.w3.org/1999/xlink" x="0px" y="0px"
	 viewBox="0 0 24 24" enable-background="new 0 0 24 24" xml:space="preserve">
<g id="SVG_x5F_24x24pt">
	<path id="backgroundBlue" fill="#2D327D" d="M0,22.5v-21C0,0.675,0.675,0,1.5,0h21C23.325,0,24,0.675,24,1.5v21
		c0,0.825-0.675,1.5-1.5,1.5h-21C0.675,24,0,23.325,0,22.5z"/>
	<g id="content">
		<polygon fill="#FFFFFF" points="12.232,5.625 12.232,3.396 13.155,4.404 13.155,3.727 12,2.572 10.845,3.727 10.845,4.404 
			11.769,3.396 11.769,5.625 12.232,5.625 		"/>
		<polygon fill="#FFFFFF" points="11.769,18.375 11.769,20.603 10.845,19.595 10.845,20.273 12,21.428 13.155,20.273 13.155,19.595 
			12.232,20.603 12.232,18.375 11.769,18.375 		"/>
		<path fill="#FFFFFF" d="M17.925,6.075H6.075v11.85h11.85V6.075L17.925,6.075z M17.175,17.175H6.825V6.825h10.35V17.175
			L17.175,17.175z"/>
		<polygon fill="#FFFFFF" points="18.75,3 21,3 21,21 18.75,21 18.75,3 		"/>
		<polygon fill="#FFFFFF" points="3,3 5.25,3 5.25,21 3,21 3,3 		"/>
		<path fill="#FFFFFF" d="M10.334,9.015c0.431,0,0.781-0.35,0.781-0.781c0-0.432-0.35-0.781-0.781-0.781
			c-0.431,0-0.781,0.35-0.781,0.781C9.553,8.664,9.903,9.015,10.334,9.015L10.334,9.015z"/>
		<path fill="#FFFFFF" d="M8.875,13.006c0.162,0,0.293-0.131,0.293-0.293l0-2.246h0.195v6.017c0,0.215,0.175,0.39,0.391,0.39
			c0.216,0,0.391-0.175,0.391-0.39l0-3.478h0.293v3.478c0,0.215,0.175,0.39,0.391,0.39c0.216,0,0.391-0.175,0.391-0.39v-6.017h0.195
			v2.246c0,0.161,0.131,0.293,0.293,0.293c0.162,0,0.293-0.131,0.293-0.293v-2.637l0,0c0-0.431-0.35-0.781-0.781-0.781H9.363
			c-0.431,0-0.781,0.35-0.781,0.781v2.637C8.582,12.875,8.713,13.006,8.875,13.006L8.875,13.006z"/>
	</g>
</g>
</svg>
