<?xml version="1.0" encoding="utf-8"?>
<!-- Generator: Adobe Illustrator 24.2.0, SVG Export Plug-In . SVG Version: 6.00 Build 0)  -->
<svg version="1.0" id="Ebene_3" xmlns="http://www.w3.org/2000/svg" xmlns:xlink="http://www.w3.org/1999/xlink" x="0px" y="0px"
	 viewBox="0 0 24 24" enable-background="new 0 0 24 24" xml:space="preserve">
<g id="SVG_x5F_24x24pt">
	<path id="backgroundBlue" fill="#2D327D" d="M0,22.5v-21C0,0.675,0.675,0,1.5,0h21C23.325,0,24,0.675,24,1.5v21
		c0,0.825-0.675,1.5-1.5,1.5h-21C0.675,24,0,23.325,0,22.5z"/>
	<g id="content">
		<g>
			<path fill="#FFFFFF" d="M11.108,4.629c0,0.882-0.715,1.598-1.598,1.598c-0.882,0-1.598-0.715-1.598-1.598
				c0-0.882,0.715-1.598,1.598-1.598C10.392,3.031,11.108,3.746,11.108,4.629z"/>
			<path fill="#FFFFFF" d="M18.271,18.083l-2.161-5.081c-0.15-0.352-0.494-0.58-0.876-0.58h-3.689l-0.198-1.588h3.054
				c0.322,0,0.582-0.261,0.582-0.582c0-0.321-0.26-0.582-0.582-0.582h-3.199L10.96,7.726c-0.09-0.725-0.751-1.24-1.476-1.149
				c-0.725,0.09-1.24,0.751-1.149,1.476l0.634,5.088c0.008,0.061,0.033,0.215,0.033,0.235c0,0.526,0.426,0.953,0.953,0.953h4.651
				l1.914,4.501c0.154,0.362,0.507,0.58,0.877,0.58c0.124,0,0.251-0.025,0.372-0.076C18.251,19.127,18.477,18.567,18.271,18.083z"/>
			<path fill="#FFFFFF" d="M15.368,17.435c-0.786,1.331-2.233,2.224-3.89,2.224c-2.494,0-4.516-2.022-4.516-4.516
				c0-1.253,0.511-2.387,1.335-3.205l-0.18-1.552c-1.491,1.055-2.465,2.792-2.465,4.757c0,3.217,2.608,5.825,5.825,5.825
				c1.818,0,3.441-0.833,4.509-2.137L15.368,17.435z"/>
		</g>
	</g>
</g>
</svg>
