<?xml version="1.0" encoding="utf-8"?>
<!-- Generator: Adobe Illustrator 27.2.0, SVG Export Plug-In . SVG Version: 6.00 Build 0)  -->
<svg version="1.1" id="Ebene_1" xmlns="http://www.w3.org/2000/svg" xmlns:xlink="http://www.w3.org/1999/xlink" x="0px" y="0px"
	 viewBox="0 0 24 24" style="enable-background:new 0 0 24 24;" xml:space="preserve">
<style type="text/css">
	.st0{fill:#131C73;}
	.st1{fill:#FFFFFF;}
</style>
<g id="SVG_x5F_24x24pt">
	<path id="backgroundBlue" class="st0" d="M0,22.5v-21C0,0.7,0.7,0,1.5,0h21C23.3,0,24,0.7,24,1.5v21c0,0.8-0.7,1.5-1.5,1.5h-21
		C0.7,24,0,23.3,0,22.5z"/>
	<g id="content">
		<path class="st1" d="M10.7,3.8c-0.7,0-1.3,0.6-1.3,1.3v8.4h0.8v6c0,0.5,0.4,0.9,0.9,0.9c0.5,0,0.9-0.4,0.9-0.9V5.1
			C12,4.3,11.4,3.8,10.7,3.8L10.7,3.8z"/>
		<path class="st1" d="M7.2,3.8C7.1,3.8,6.9,3.9,6.9,4v3.8H6.4V4c0-0.2-0.1-0.3-0.3-0.3C5.9,3.8,5.8,3.9,5.8,4v3.8H5.2V4
			c0-0.2-0.1-0.3-0.3-0.3S4.7,3.9,4.7,4v3.8H4.1V4c0-0.2-0.1-0.3-0.3-0.3C3.7,3.8,3.6,3.9,3.6,4v3.8c0,0,0,0,0,0
			c0,0.8,0.4,1.5,1,1.9v9.7c0,0.5,0.4,0.9,0.9,0.9c0.5,0,0.9-0.4,0.9-0.9V9.8c0.6-0.4,1-1.1,1-1.9c0,0,0,0,0,0V4
			C7.5,3.9,7.4,3.8,7.2,3.8L7.2,3.8z"/>
	</g>
</g>
</svg>
