<?xml version="1.0" encoding="UTF-8"?><svg id="Layer_1" xmlns="http://www.w3.org/2000/svg" width="48" height="48" viewBox="0 0 48 48"><defs><style>.cls-1{fill:#041676;}</style></defs><path class="cls-1" d="m46.394,15.362c1.822,4.725,2.102,9.905.801,14.798-1.301,4.894-4.117,9.251-8.044,12.448-3.928,3.197-8.766,5.071-13.824,5.354-5.057.282-10.074-1.041-14.334-3.782l-.264-.169,8.595-6.909c2.2.785,4.563,1.003,6.87.634,2.307-.369,4.484-1.313,6.329-2.746l.19-.153v.016c1.822-1.464,3.244-3.363,4.138-5.521.893-2.159,1.228-4.508.973-6.83l-.032-.232,8.601-6.909Zm-7.27-9.997c2.541,2.067,4.634,4.63,6.151,7.532l.169.322L8.855,42.629c-2.539-2.065-4.63-4.626-6.146-7.527l-.169-.322L39.129,5.365h-.005Zm-30.158-.069C12.893,2.14,17.715.299,22.747.033c5.033-.265,10.021,1.059,14.259,3.786l.264.169-8.601,6.904c-2.2-.784-4.563-1.002-6.87-.633-2.307.369-4.484,1.313-6.329,2.744l-.19.153h.005c-1.82,1.465-3.241,3.364-4.133,5.523-.892,2.158-1.227,4.507-.972,6.828l.026.238-8.595,6.904C-.223,27.899-.499,22.689.823,17.773c1.322-4.917,4.173-9.286,8.142-12.476Z"/></svg>