<svg width="104" height="25" fill="none" xmlns="http://www.w3.org/2000/svg" class="fill-current"><path d="M3.542 24.313V12.61c0-1.895 1.474-3.392 3.35-3.392 1.875 0 3.35 1.493 3.35 3.392v11.704h2.879V12.61c0-1.895 1.474-3.392 3.35-3.392 1.87 0 3.349 1.493 3.349 3.392v11.704h2.88V12.61c0-2.842-1.979-6.308-6.23-6.308H.667v18.008h2.875v.004Zm32.043.437c5.147 0 9.324-4.23 9.324-9.443V6.301H38.68v5.832c0 1.75-1.366 3.135-3.095 3.135s-3.095-1.384-3.095-3.135V6.301h-6.23v9.006c0 5.213 4.178 9.443 9.325 9.443Zm21.567 0c5.147 0 9.325-4.23 9.325-9.443V.25h-2.88v.62c0 4.741-1.19 4.994-6.445 4.994-5.147 0-9.324 4.23-9.324 9.443 0 5.213 4.173 9.443 9.324 9.443Zm0-2.37c-3.746 0-6.371-3.135-6.371-7.073 0-3.938 2.63-7.072 6.371-7.072 3.742 0 6.372 3.134 6.372 7.072s-2.63 7.072-6.372 7.072ZM85.7 24.313v-8.57c0-5.212-4.177-9.442-9.325-9.442h-2.34c-.759 0-1.367.362-1.367 1.091 0 1.096 1.078 1.205 1.078 2.336 0 .729-.397 1.13-1.19 1.606-1.944 1.166-3.6 3.353-3.6 6.125 0 3.79 3.027 6.854 6.769 6.854h9.975Zm-9.325-3.828c-1.728 0-3.095-1.384-3.095-3.135 0-1.75 1.367-3.134 3.096-3.134 1.728 0 3.095 1.384 3.095 3.134 0 1.746-1.367 3.135-3.096 3.135Zm21.348 4.19c2.737 0 4.354-.728 5.798-1.859.25-.218.397-.546.397-.873 0-.655-.505-1.096-1.117-1.096-.25 0-.504.11-.72.258-1.258.803-2.375 1.205-4.285 1.205-3.384 0-6.371-2.59-6.371-7.038s2.987-7.037 6.371-7.037c1.91 0 3.022.401 4.285 1.205.216.144.47.257.72.257.612 0 1.117-.436 1.117-1.096 0-.327-.143-.654-.397-.877-1.44-1.13-3.061-1.86-5.798-1.86-5.147 0-9.251 3.938-9.251 9.408 0 5.466 4.104 9.404 9.251 9.404Z" fill="#041676"/></svg>