<svg width="70" height="33" fill="none" xmlns="http://www.w3.org/2000/svg" class="fill-current"><path d="M26.77 7.8a7.7 7.7 0 0 0 7.83 7.78 7.7 7.7 0 0 0 7.84-7.79A7.7 7.7 0 0 0 34.6 0a7.7 7.7 0 0 0-7.83 7.8Zm27.08 0a7.7 7.7 0 0 0 7.83 7.78 7.7 7.7 0 0 0 7.83-7.79A7.7 7.7 0 0 0 61.68 0a7.7 7.7 0 0 0-7.83 7.8Zm-37.6 7.54V9.3h4.98v6.04h3.44V.24h-3.44v5.92h-4.98V.25h-3.43v15.09h3.43ZM.67.24v15.1h3.35V10.1h1.07c1.76 0 3.25-.13 4.53-1.06a4.84 4.84 0 0 0 1.86-3.95c0-1.59-.66-2.95-1.86-3.82C8.34.35 6.8.25 5.05.25H.67Zm45.78 15.1h3.41V3.39h4.1V.25h-11.6v3.14h4.09v11.95ZM4.02 3.18h1.46c.75 0 1.35.1 1.82.41.47.33.75.85.75 1.57 0 .72-.27 1.24-.75 1.57-.47.31-1.07.42-1.82.42H4.02V3.18Zm26.2 4.61a4.37 4.37 0 1 1 8.74-.03 4.37 4.37 0 0 1-8.74.03Zm27.08 0a4.37 4.37 0 1 1 8.74-.03 4.37 4.37 0 0 1-8.74.03ZM44.15 21.87c-.04-2.57-1.98-4.55-4.85-4.55-2.81 0-4.94 1.94-4.94 4.42 0 1.28.45 2.24 1.18 2.96a7.4 7.4 0 0 0 2.76 1.57l.85.3c1.16.42 1.95.73 1.95 1.74 0 .95-.85 1.65-1.82 1.65a1.85 1.85 0 0 1-1.9-1.92h-3.5A5.11 5.11 0 0 0 39.2 33c2.98 0 5.25-2.07 5.25-4.86 0-1.38-.45-2.31-1.22-3.02-.64-.57-1.48-.99-2.46-1.36l-1.17-.43c-1.02-.38-1.8-.7-1.8-1.64 0-.78.56-1.38 1.45-1.38.82 0 1.48.5 1.5 1.55h3.41ZM.67 32.7h9.9v-3.14H4.02v-2.87h6.24v-3.16H4.02v-2.77h6.53V17.6H.67V32.7Zm21.54-3.15h-5.94V17.61h-3.45v15.08h9.39v-3.14Zm24.24 3.15h9.9v-3.14H49.8v-2.87h6.24v-3.16H49.8v-2.77h6.53V17.6h-9.88V32.7Zm12.15 0h9.9v-3.14h-6.55v-2.87h6.25v-3.16h-6.25v-2.77h6.53V17.6H58.6V32.7Zm-33.25 0h3.43V27.6l5.16-10h-3.67l-1.45 3.23c-.47 1.05-1.12 2.29-1.65 3.51h-.04c-.6-1.28-1.2-2.46-1.7-3.47l-1.57-3.27h-3.68l5.17 10v5.09Z" fill="#041676"/></svg>