<?xml version="1.0" encoding="UTF-8"?><svg id="Layer_1" xmlns="http://www.w3.org/2000/svg" width="136" height="91" viewBox="0 0 136 91"><defs><style>.cls-1{fill:#041676;}</style></defs><path class="cls-1" d="m132.47,29.11c3.45,8.952,3.981,18.765,1.517,28.037-2.464,9.272-7.797,17.527-15.236,23.585-7.44,6.058-16.604,9.608-26.182,10.143-9.579.535-19.081-1.973-27.149-7.165l-.5-.32,16.28-13.09c4.168,1.488,8.643,1.901,13.012,1.202,4.37-.699,8.493-2.488,11.988-5.202l.36-.29v.03c3.45-2.773,6.145-6.371,7.837-10.46,1.691-4.09,2.325-8.54,1.843-12.94l-.06-.44,16.29-13.09ZM31.9,10.71v78.72H12.81V26.07l19.1-15.35-.01-.01Zm86.8-.54c4.812,3.916,8.776,8.771,11.65,14.27l.32.61-69.3,55.72c-4.809-3.913-8.77-8.765-11.64-14.26l-.32-.61L118.71,10.17h-.01Zm-57.47,54.95c-.468-.256-.998-.378-1.531-.352-.533.026-1.048.2-1.489.501l-.16.12-2.22,1.76,5.47,6.8,1.51-1.22-1.85-2.32.65-.52c.55-.43.92-1.05,1.04-1.73l.03-.2h.04c.06-.568-.05-1.14-.315-1.646-.265-.506-.674-.921-1.175-1.194Zm1.76-3.75l-1.49,1.23,5.45,6.82,4.1-3.3-1.23-1.54-2.6,2.07-4.24-5.28h.01Zm-3.1,5.12c.25.04.49.17.66.36l.08.1c.19.2.27.47.24.74-.02.2-.11.4-.26.54l-.1.09-.73.6-1.3-1.6.74-.6c.185-.161.425-.244.67-.23Zm10.91-11.35l-1.62,1.3,2.7,8.97v.06l1.63-1.28-.38-1.31,3.02-2.44,1.18.64,1.67-1.36-8.2-4.58Zm-9.22-45.1C69.019,4.059,78.151.57,87.683.068c9.532-.503,18.98,2.007,27.007,7.172l.5.32-16.29,13.08c-4.168-1.486-8.643-1.898-13.012-1.199-4.369.699-8.492,2.487-11.988,5.199l-.36.29h.01c-3.446,2.775-6.139,6.373-7.828,10.463-1.69,4.089-2.323,8.538-1.842,12.937l.05.45-16.28,13.08c-3.473-8.999-3.996-18.868-1.492-28.183,2.504-9.315,7.905-17.593,15.422-23.637Zm9.88,47.67l2.9,1.53-2,1.61-.9-3.14Zm6.53-8.4l-4.27,3.44,1.23,1.53,1.36-1.11,4.27,5.3,1.52-1.23-4.24-5.27,1.37-1.11-1.24-1.55Zm5.6-4.46l-3.95,3.17,5.47,6.8,3.95-3.17-1.22-1.53-2.43,1.96-.9-1.12,1.74-1.39-1.25-1.53-1.74,1.4-.89-1.11,2.43-1.96-1.23-1.52h.02Zm5.77-4.64l-3.96,3.18,5.47,6.8,1.53-1.22-2.13-2.64,1.74-1.4-1.23-1.52-1.73,1.4-.9-1.12,2.4-1.94-1.2-1.54h.01Zm10.59-2.91c-.751-.932-1.841-1.529-3.031-1.66-1.19-.131-2.383.214-3.319.96-.86.756-1.401,1.809-1.514,2.948-.113,1.139.21,2.278.904,3.188.694.91,1.708,1.523,2.836,1.715,1.128.192,2.288-.052,3.243-.681l.19-.13.17-.15c.864-.77,1.4-1.843,1.497-2.996.096-1.153-.253-2.3-.977-3.204v.01Zm-5.13.83c.361-.282.791-.462,1.245-.523.454-.061.916,0,1.339.178.423.177.79.464,1.066.83.275.366.448.799.5,1.255.042.433-.028.87-.202,1.27-.174.399-.447.747-.793,1.012-.346.264-.754.436-1.185.498-.431.063-.871.014-1.278-.14-.407-.155-.768-.411-1.049-.744-.281-.333-.472-.732-.555-1.159-.083-.427-.056-.869.079-1.283.135-.414.373-.787.692-1.083l.14-.11Zm8-7.68c-.7-.07-1.4.11-1.96.52l-.16.12-2.18,1.76,5.47,6.8,1.52-1.22-2.7-3.35,4,2.3,1.56-1.26-3.19-1.75c.4-.95.23-2.04-.43-2.83-.47-.61-1.17-1-1.93-1.09Zm9.36-8.56l-1.59,1.27,1.93,6.34-5.76-3.22-1.59,1.27,4.26,7.73,1.6-1.3-2.51-4.54,4.8,2.68,1.6-1.28-1.6-5.31,3.93,3.45,1.59-1.27-6.66-5.82Zm-9.75,10.33h.13c.25.03.49.16.64.36.47.58.33,1.27-.49,2.08l-.15.14-1.44-1.78.74-.59c.17-.13.37-.2.58-.21h-.01ZM31.9,1.5v3.75L0,30.9V11.82L12.81,1.51h19.1l-.01-.01Zm86.66,15.16l-3.98,3.2,5.48,6.8,3.97-3.2-1.22-1.52-2.45,1.98-.92-1.1,1.76-1.41-1.23-1.53-1.74,1.46-.9-1.12,2.49-2.02-1.26-1.54Z"/></svg>