<?xml version="1.0" encoding="UTF-8"?><svg id="Layer_1" xmlns="http://www.w3.org/2000/svg" width="130" height="18" viewBox="0 0 130 18"><defs><style>.cls-1{fill:#131c73;fill-rule:evenodd;}</style></defs><g id="svgGroup"><path class="cls-1" d="m83.884,17.199h2.939v-6.833c-.002-.305.025-.609.079-.909.067-.353.175-.668.326-.945.092-.169.202-.328.329-.472.202-.234.445-.43.717-.577.33-.172.698-.26,1.07-.256.197-.002.394.018.587.059.235.052.438.138.607.259.17.122.311.281.41.466.101.191.18.392.235.601.111.404.174.897.19,1.481.003.098.004.196.004.294v6.833h2.939v-6.833c0-.711.117-1.308.35-1.789.095-.198.216-.383.36-.55.473-.547,1.053-.82,1.739-.82.526,0,.943.123,1.25.368.143.115.263.256.354.415.116.205.206.424.267.652.12.426.182.94.186,1.543,0,.02,0,.039,0,.059v6.955h2.914v-7.984c.003-.422-.033-.843-.108-1.258-.086-.463-.225-.876-.415-1.238-.152-.293-.348-.562-.58-.798-.511-.511-1.162-.859-1.872-1-.375-.079-.758-.117-1.141-.114-.445-.003-.888.053-1.319.166-.357.095-.7.237-1.02.422-.365.209-.71.451-1.031.723-.233.198-.449.415-.647.648-.278-.553-.703-1.019-1.229-1.347-.039-.025-.078-.049-.118-.073-.529-.312-1.125-.493-1.738-.528-.106-.007-.212-.011-.319-.011-.36-.002-.718.041-1.067.129-.346.089-.676.231-.978.422-.285.178-.55.388-.789.624-.208.206-.392.437-.545.687l-.049.024v-1.592h-2.89v12.098ZM15.603,11.933l-3.159-.661c-.212,1.094-.661,1.996-1.347,2.706-.686.71-1.6,1.065-2.743,1.065-.963,0-1.8-.253-2.51-.759-.564-.406-1.028-.934-1.358-1.545-.1-.182-.19-.369-.27-.561-.376-.898-.563-1.918-.563-3.061s.188-2.163.563-3.061c.181-.441.42-.856.711-1.233.259-.333.564-.627.905-.873.702-.506,1.527-.759,2.474-.759.413-.004.825.05,1.223.161.58.163,1.105.479,1.52.916.686.718,1.118,1.575,1.298,2.572l3.135-.661c-.229-.963-.641-1.857-1.237-2.682-.596-.825-1.388-1.49-2.376-1.996-.598-.301-1.237-.512-1.898-.624-.534-.092-1.075-.138-1.617-.135-.824-.006-1.645.111-2.435.347-.567.172-1.111.414-1.619.719-1.184.71-2.102,1.702-2.755,2.976-.488.964-.797,2.009-.911,3.083-.047.416-.07.834-.069,1.252,0,1.633.331,3.082.992,4.347.661,1.265,1.58,2.253,2.755,2.963,1.01.605,2.15.961,3.324,1.039.23.017.461.026.692.026.73.006,1.457-.081,2.164-.259.946-.237,1.826-.685,2.574-1.309,1.249-1.045,2.094-2.376,2.535-3.992Zm105.188-5.266v-1.567h-2.89v12.098h2.939v-6.759c-.003-.384.049-.766.155-1.134.126-.429.34-.827.628-1.168.196-.238.43-.442.693-.602.368-.219.789-.333,1.217-.328.478,0,.867.082,1.168.246.217.116.397.289.522.501.1.174.178.359.232.552.139.467.208,1.071.208,1.812v6.882h2.939v-8.229c.003-.408-.036-.815-.118-1.215-.105-.492-.278-.923-.521-1.293-.145-.221-.317-.424-.512-.602-.585-.531-1.316-.875-2.099-.987-.286-.045-.575-.067-.865-.066-.817,0-1.543.18-2.18.539-.338.188-.653.414-.939.673-.215.196-.409.414-.579.649Zm-42.834-1.567v6.759c0,.914-.253,1.682-.759,2.302-.19.238-.419.442-.678.602-.364.22-.783.334-1.208.328-.198.001-.395-.015-.589-.05-.213-.039-.399-.102-.56-.189-.221-.116-.404-.292-.528-.508-.25-.436-.391-1.094-.422-1.975-.004-.129-.007-.259-.007-.388v-6.882h-2.939v7.984c0,1.486.38,2.592,1.139,3.319.599.57,1.364.933,2.184,1.037.254.036.511.054.767.053.516.004,1.028-.084,1.512-.261.214-.079.421-.176.619-.29.637-.367,1.143-.796,1.518-1.286v1.543h2.89V5.1h-2.939Zm-53.194,10.923h.024v1.176h2.865v-8.523c.004-.413-.053-.824-.169-1.219-.196-.656-.601-1.229-1.154-1.634-.426-.313-.903-.548-1.41-.695-.652-.198-1.407-.297-2.264-.297-1.567,0-2.821.343-3.759,1.029-.863.618-1.427,1.571-1.551,2.625-.011.08-.021.16-.028.241l2.89.245c.017-.313.097-.62.234-.903.328-.644.987-.994,1.978-1.049.095-.005.191-.008.287-.008.182,0,.364.009.544.03.443.054.779.178,1.011.374.144.119.262.266.347.433.089.182.134.382.131.584.004.167-.038.332-.12.477-.135.227-.383.386-.745.477-.038.01-.076.018-.115.026l-2.498.49c-.966.198-1.777.477-2.431.836-.252.137-.491.295-.716.474-.602.481-.988,1.18-1.075,1.946-.027.195-.04.392-.039.589,0,1.192.42,2.114,1.261,2.767.67.515,1.467.838,2.307.933.254.032.51.047.767.047.427.003.854-.038,1.273-.123.95-.201,1.668-.65,2.156-1.347Zm24.344-1.323l-2.155-1.518c-.186.264-.398.509-.631.733-.227.218-.48.408-.753.565-.318.179-.665.304-1.024.368-.272.05-.548.074-.825.073-.425.004-.849-.063-1.252-.198-.409-.141-.787-.361-1.111-.647-.607-.526-.984-1.268-1.052-2.068-.005-.049-.01-.099-.013-.148h8.768v-.906c0-1.192-.229-2.249-.686-3.172-.457-.923-1.118-1.649-1.984-2.18-.602-.364-1.27-.605-1.965-.71-.371-.058-.745-.087-1.12-.086-.633-.005-1.264.086-1.87.268-.403.124-.79.292-1.154.503-.867.504-1.576,1.241-2.046,2.127-.016.03-.032.06-.048.09-.324.626-.545,1.301-.652,1.997-.073.457-.108.919-.107,1.382-.004.619.071,1.237.221,1.838.127.499.316.98.563,1.432.522.955,1.245,1.702,2.167,2.241.78.451,1.653.719,2.552.784.198.016.396.024.595.024.916.012,1.825-.151,2.681-.479,1.106-.437,2.049-1.175,2.828-2.212.025-.034.05-.067.075-.101Zm66.493,0l-2.155-1.518c-.186.264-.398.509-.631.733-.227.218-.48.408-.753.565-.318.179-.665.304-1.024.368-.272.05-.548.074-.825.073-.425.004-.849-.063-1.252-.198-.409-.141-.787-.361-1.111-.647-.607-.526-.984-1.268-1.052-2.068-.005-.049-.01-.099-.013-.148h8.768v-.906c0-1.192-.229-2.249-.686-3.172-.457-.923-1.118-1.649-1.984-2.18-.602-.364-1.27-.605-1.965-.71-.371-.058-.745-.087-1.12-.086-.633-.005-1.264.086-1.87.268-.403.124-.79.292-1.154.503-.867.504-1.576,1.241-2.046,2.127-.016.03-.032.06-.048.09-.324.626-.545,1.301-.652,1.997-.073.457-.108.919-.107,1.382-.004.619.071,1.237.221,1.838.127.499.316.98.563,1.432.522.955,1.245,1.702,2.167,2.241.78.451,1.653.719,2.552.784.198.016.396.024.595.024.916.012,1.825-.151,2.681-.479,1.106-.437,2.049-1.175,2.828-2.212.025-.034.05-.067.075-.101Zm-47.047,2.498v-2.547h-8.082V1.035h-3.037v16.164h11.119Zm-37.299,0h2.939V7.378h2.18v-2.278h-2.18v-.784c0-.108.008-.216.027-.322.022-.119.057-.225.105-.318.044-.086.103-.164.174-.229.081-.072.174-.128.275-.166.17-.067.383-.104.64-.113.042-.001.084-.002.125-.002h.71V.961c-.213-.037-.428-.065-.644-.084-.224-.019-.462-.032-.715-.036-.086-.002-.172-.002-.258-.002-.429-.005-.857.04-1.275.134-1.149.274-1.828.967-2.035,2.08-.047.264-.071.531-.069.799v1.249h-1.812v2.278h1.812v9.821Zm13.47-13.323l3.135-2.841h-3.919l-2.253,2.841h3.037Zm1.396,5.902h-5.78c.114-.751.437-1.384.967-1.898.482-.469,1.121-.742,1.793-.766.068-.004.135-.006.203-.006.816,0,1.478.253,1.984.759.47.469.76,1.089.819,1.75.006.053.01.107.014.16Zm66.493,0h-5.78c.114-.751.437-1.384.967-1.898.482-.469,1.121-.742,1.793-.766.068-.004.135-.006.203-.006.816,0,1.478.253,1.984.759.47.469.76,1.089.819,1.75.006.053.01.107.014.16Zm-90.787,2.302l2.914-.686v1.127c.002.278-.028.556-.089.827-.11.467-.321.856-.633,1.169-.464.464-1.107.705-1.928.721-.031,0-.062,0-.092,0-.197.001-.393-.018-.585-.058-.261-.056-.49-.152-.689-.288-.038-.026-.074-.054-.11-.083-.178-.14-.319-.321-.411-.528-.079-.185-.118-.385-.116-.586-.005-.488.251-.941.671-1.188.17-.113.373-.211.609-.294.151-.053.304-.098.459-.134Z" vector-effect="non-scaling-stroke"/></g></svg>