<svg width="93" height="25" viewBox="0 0 93 25" fill="none" xmlns="http://www.w3.org/2000/svg">
<g clip-path="url(#clip0_670_288)">
<path d="M23.3998 0.799988H0.519766V5.52999L15.0198 10.43C16.8398 11.08 18.3698 11.57 19.9298 11.93V12.08C18.4298 12.5 17.2298 12.95 15.0098 13.82L0.509766 19.43V24.18H23.4098V21.5H10.6398C8.68977 21.5 5.23977 21.63 3.53977 21.66V21.5L23.4098 13.92V10.5L3.53977 3.62999V3.46999C6.21977 3.49999 8.42977 3.59999 10.6398 3.59999H23.4098V0.799988H23.3998ZM44.7698 16.44C44.1798 19.96 41.8398 22.19 38.4798 22.19C34.0498 22.19 31.1798 18.38 31.1798 12.5C31.1798 6.56999 34.0798 2.81999 38.4798 2.81999C41.8998 2.81999 44.1498 4.88999 44.6998 8.43999H47.9998C47.4998 3.68999 43.7098 0.299988 38.4698 0.299988C31.6698 0.299988 27.8498 5.87999 27.8498 12.5C27.8498 20.25 31.9498 24.7 38.4698 24.7C43.7498 24.7 47.3298 21.18 48.0698 16.44H44.7598H44.7698ZM55.1198 21.67V13.63H58.2498C63.2298 13.63 65.3498 14.38 65.3498 17.7C65.3498 21.31 62.2898 21.67 58.6698 21.67H55.1198ZM51.9298 24.21H58.6398C63.2398 24.21 68.6398 23.44 68.6398 17.76C68.6398 14.47 66.9398 12.92 63.9398 12.24V12.18C65.11 11.8996 66.1505 11.2307 66.8915 10.2826C67.6326 9.33455 68.0303 8.16326 68.0198 6.95999C68.0198 1.07999 63.0698 0.789988 58.8998 0.789988H51.9298V24.21ZM55.1298 11.08V3.37999H58.4398C61.9898 3.37999 64.8198 3.66999 64.8198 7.24999C64.8198 11.09 60.7598 11.09 58.0798 11.09H55.1198L55.1298 11.08ZM92.6598 0.799988H89.2698L86.6998 7.59999H76.3498L73.6198 0.799988H70.1298L79.8298 24.22H83.0598L92.6598 0.799988ZM85.6598 10.2L83.2798 16.29C82.6598 17.9 82.0798 19.58 81.5198 21.16H81.3998C80.8398 19.51 80.1598 17.9 79.5398 16.22L77.2898 10.19H85.6598V10.2Z" fill="#041676"/>
</g>
<defs>
<clipPath id="clip0_670_288">
<rect width="93" height="25" fill="white"/>
</clipPath>
</defs>
</svg>
