<?xml version="1.0" encoding="UTF-8"?><svg id="Layer_1" xmlns="http://www.w3.org/2000/svg" width="80" height="28" viewBox="0 0 80 28"><defs><style>.cls-1{fill:#131c73;}</style></defs><g id="vhqxLB"><g><path class="cls-1" d="m1.05,24.382c.066-2.382.849-4.414,2.438-6.098,1.61-1.706,3.609-2.634,5.944-2.782,2.018-.129,3.885.387,5.546,1.547,2.534,1.77,3.765,4.266,3.909,7.324h.761c.477-2.658-1.625-6.494-4.516-8.299-3.383-2.111-7.714-1.958-10.923.387-2.556,1.868-4.489,5.734-3.937,7.922h.777Zm73.943-12.488v12.466h.772c.137-.951.09-11.995-.048-12.466h-.725ZM9.7.41v6.015h3.547c-.015-.216-.027-.379-.044-.624h-2.832v-2.184h2.558c-.015-.241-.025-.4-.039-.632h-2.506V.969h2.818V.41h-3.502Zm-2.853,8.696h6.404c-.024-.214-.043-.372-.067-.582h-5.767V.46m64.226,7.912c2.532,1,4.967,1.004,7.481.006-.118-.273-.208-.482-.316-.732-2.292.884-4.547.873-6.82.009-.11.23-.203.422-.345.717Z"/><path class="cls-1" d="m57.17,27.844c-.431-.048-1.152-.22-1.718-.376-1.849-.51-3.656-1.691-4.746-3.083V3.002h.85v20.951c1.905,2.347,5.868,3.91,9.757,2.406,3.624-1.401,5.828-4.846,5.692-8.603-.085-2.335-.98-4.355-2.653-6.002-1.67-1.644-3.71-2.455-6.073-2.562v-.848c.267,0,.541-.023.812.003,4.887.469,8.729,4.62,8.81,9.512.083,5.023-3.559,9.26-8.508,9.903-.127.016-.597.083-.818.103s-.973.028-1.404-.021Z"/><path class="cls-1" d="m34.341,27.864c-.532-.119-1.069-.218-1.594-.361-4.405-1.197-7.37-5.202-7.241-9.766.129-4.573,3.636-8.586,8.165-9.285,3.638-.562,6.653.634,9.113,3.338v12.579h-.853v-12.115c-2.278-2.779-6.494-3.789-9.88-2.437-3.689,1.472-5.907,5.017-5.598,9.041.174,2.264,1.144,4.177,2.807,5.723,1.642,1.527,3.614,2.286,5.873,2.382v.901h-.792Z"/><path class="cls-1" d="m1.05,24.382H.273c-.552-2.187,1.381-6.054,3.937-7.922,3.209-2.345,7.54-2.498,10.923-.387,2.891,1.804,4.993,5.641,4.516,8.299h-.761c-.145-3.058-1.376-5.554-3.909-7.324-1.661-1.16-3.528-1.676-5.546-1.547-2.335.149-4.334,1.076-5.944,2.782-1.59,1.685-2.372,3.716-2.438,6.098Z"/><path class="cls-1" d="m74.992,11.894h.725c.138.471.185,11.515.048,12.466h-.772v-12.466Z"/><path class="cls-1" d="m9.7.41h3.502v.56h-2.818v2.015h2.818v.632h-2.831v2.184h2.831v.624h-3.502V.41Z"/><polygon class="cls-1" points="7.418 .46 7.418 8.524 13.252 8.524 13.252 9.105 6.847 9.105 6.809 .46 7.418 .46"/><path class="cls-1" d="m71.644,8.372c.142-.295.234-.487.345-.717,2.274.864,4.529.875,6.82-.009.108.25.198.46.316.732-2.514.998-4.95.994-7.481-.006Z"/></g></g></svg>