<?xml version="1.0" encoding="UTF-8"?><svg id="Group_4033" xmlns="http://www.w3.org/2000/svg" width="116.897" height="21.163" viewBox="0 0 116.897 21.163"><defs><style>.cls-1{fill:#041676;}</style></defs><g id="Group_3988"><path id="Path_1" class="cls-1" d="m35.528,8.485c-.005-4.495-3.648-8.138-8.143-8.143h-8.702v20.515h5.297v-.994c0-1.718,1.392-3.11,3.11-3.11s3.11,1.392,3.11,3.11v.994h5.297v-.994c.001-2.126-.806-4.173-2.259-5.725,1.469-1.515,2.291-3.542,2.29-5.653m-8.143-2.846c1.572,0,2.846,1.274,2.846,2.846s-1.274,2.846-2.846,2.846h-3.405v-5.692h3.405Z"/><rect id="Rectangle_6744" class="cls-1" x="92.917" y=".34" width="5.297" height="20.517"/><path id="Path_2" class="cls-1" d="m81.156.333h-3.945v.007h-2.625v20.517h2.625v.007h3.944c5.67,0,10.266-4.596,10.266-10.266S86.825.333,81.155.333m0,15.234h-1.272V5.63h1.272c2.744,0,4.968,2.226,4.967,4.97,0,2.743-2.224,4.966-4.967,4.967"/><path id="Path_3" class="cls-1" d="m48.956,12.799l-.113.67c-.06.388-.185.763-.37,1.11-.162.298-.378.564-.637.783-.256.213-.549.376-.866.479-.358.117-.733.174-1.11.171-.661.016-1.309-.178-1.852-.555-.588-.443-1.034-1.047-1.284-1.739-.363-1.004-.534-2.067-.503-3.134-.028-1.051.142-2.097.5-3.085.252-.701.7-1.315,1.289-1.771.546-.39,1.205-.591,1.876-.573.378-.003.753.06,1.11.185.322.113.618.288.874.513.259.232.473.51.629.821.179.363.293.754.34,1.156l.092.694h5.37l-.095-.878c-.107-1.111-.409-2.195-.892-3.201-.447-.917-1.069-1.738-1.831-2.416-.755-.663-1.63-1.176-2.577-1.511C47.908.167,46.857-.007,45.8,0c-1.62-.019-3.213.423-4.591,1.275-1.397.892-2.512,2.161-3.217,3.661-.812,1.769-1.207,3.7-1.156,5.646-.05,1.94.34,3.866,1.142,5.633.697,1.502,1.806,2.774,3.199,3.668,1.388.859,2.992,1.303,4.623,1.281,1.143.016,2.277-.194,3.339-.617.956-.389,1.827-.96,2.566-1.68.705-.691,1.282-1.501,1.706-2.393.417-.874.684-1.812.792-2.774l.097-.875-5.345-.026Z"/><path id="Path_4" class="cls-1" d="m64.311.212c-4.641.004-8.402,3.766-8.407,8.407v12.238h5.297v-.994c-.091-1.718,1.227-3.184,2.945-3.275,1.718-.091,3.184,1.227,3.275,2.945.006.11.006.221,0,.331v.994h5.299v-12.238c-.004-4.642-3.767-8.404-8.409-8.407m0,11.075c-1.067,0-2.124.209-3.11.617v-3.283c0-1.718,1.392-3.11,3.11-3.11s3.11,1.392,3.11,3.11v3.283c-.986-.408-2.043-.617-3.11-.617"/><path id="Path_5" class="cls-1" d="m8.407.212C3.766.216.004,3.978,0,8.619v12.238h5.297v-.994c-.022-1.755,1.356-3.208,3.11-3.279,1.753.071,3.132,1.525,3.11,3.279v.994h5.298v-12.238c-.004-4.641-3.766-8.403-8.407-8.407m0,11.075c-1.067,0-2.124.209-3.11.617v-3.283c0-1.718,1.392-3.11,3.11-3.11s3.11,1.392,3.11,3.11v3.283c-.986-.408-2.043-.617-3.11-.617"/><path id="Path_6" class="cls-1" d="m108.49.212c-4.641.004-8.403,3.765-8.407,8.407v12.238h5.297v-.994c-.091-1.718,1.227-3.184,2.945-3.275,1.718-.091,3.184,1.227,3.275,2.945.006.11.006.221,0,.331v.994h5.297v-12.238c-.004-4.641-3.766-8.402-8.407-8.407m0,11.075c-1.067,0-2.124.209-3.11.617v-3.283c.021-1.718,1.43-3.093,3.148-3.072,1.688.021,3.052,1.384,3.072,3.072v3.283c-.986-.407-2.043-.617-3.11-.617"/></g></svg>